<svg xmlns="http://www.w3.org/2000/svg" xmlns:xlink="http://www.w3.org/1999/xlink" width="200" zoomAndPan="magnify" viewBox="0 0 375 374.999991" height="200" preserveAspectRatio="xMidYMid meet" version="1.0"><defs><g/><clipPath id="ab83bb2ca7"><path d="M 243.359375 193.925781 L 264.359375 193.925781 L 264.359375 214.925781 L 243.359375 214.925781 Z M 243.359375 193.925781 " clip-rule="nonzero"/></clipPath><clipPath id="93f36ebbf7"><path d="M 92.386719 153 L 122 153 L 122 182.109375 L 92.386719 182.109375 Z M 92.386719 153 " clip-rule="nonzero"/></clipPath><clipPath id="a83cb09a6c"><path d="M 112 143.859375 L 129.886719 143.859375 L 129.886719 162 L 112 162 Z M 112 143.859375 " clip-rule="nonzero"/></clipPath></defs><g clip-path="url(#ab83bb2ca7)"><path fill="#5a0202" d="M 253.929688 193.925781 C 252.898438 202.628906 252.0625 203.464844 243.359375 204.496094 C 243.378906 204.496094 243.394531 204.5 243.414062 204.5 C 252.066406 205.527344 252.902344 206.378906 253.929688 215.066406 C 254.960938 206.359375 255.796875 205.523438 264.5 204.496094 C 255.796875 203.464844 254.960938 202.628906 253.929688 193.925781 Z M 253.929688 193.925781 " fill-opacity="1" fill-rule="nonzero"/></g><g clip-path="url(#93f36ebbf7)"><path fill="#5a0202" d="M 107.21875 161.0625 C 107.304688 161.878906 107.527344 162.65625 107.882812 163.394531 C 108.238281 164.136719 108.703125 164.796875 109.285156 165.375 C 109.863281 165.953125 110.523438 166.421875 111.261719 166.777344 C 112.003906 167.132812 112.78125 167.351562 113.59375 167.441406 C 116.171875 167.699219 118.753906 167.816406 121.339844 167.796875 C 118.753906 167.773438 116.171875 167.890625 113.59375 168.148438 C 112.777344 168.238281 112 168.457031 111.261719 168.8125 C 110.523438 169.167969 109.863281 169.636719 109.285156 170.214844 C 108.703125 170.796875 108.238281 171.453125 107.882812 172.195312 C 107.527344 172.933594 107.304688 173.710938 107.21875 174.527344 C 106.960938 177.101562 106.84375 179.683594 106.863281 182.273438 C 106.886719 179.683594 106.765625 177.101562 106.511719 174.527344 C 106.421875 173.710938 106.199219 172.933594 105.84375 172.195312 C 105.492188 171.453125 105.023438 170.792969 104.445312 170.214844 C 103.863281 169.636719 103.203125 169.167969 102.464844 168.8125 C 101.726562 168.457031 100.949219 168.238281 100.132812 168.148438 C 97.558594 167.890625 94.976562 167.773438 92.386719 167.796875 C 94.976562 167.816406 97.558594 167.699219 100.132812 167.441406 C 100.949219 167.351562 101.726562 167.132812 102.464844 166.777344 C 103.203125 166.421875 103.863281 165.953125 104.445312 165.375 C 105.023438 164.796875 105.492188 164.136719 105.84375 163.394531 C 106.199219 162.65625 106.421875 161.878906 106.511719 161.0625 C 106.765625 158.488281 106.886719 155.90625 106.863281 153.316406 C 106.84375 155.90625 106.960938 158.488281 107.21875 161.0625 Z M 107.21875 161.0625 " fill-opacity="1" fill-rule="nonzero"/></g><g clip-path="url(#a83cb09a6c)"><path fill="#5a0202" d="M 121.558594 148.652344 C 121.613281 149.152344 121.746094 149.625 121.964844 150.078125 C 122.179688 150.53125 122.464844 150.933594 122.820312 151.285156 C 123.171875 151.640625 123.578125 151.925781 124.027344 152.140625 C 124.480469 152.359375 124.953125 152.492188 125.453125 152.546875 C 127.023438 152.703125 128.601562 152.777344 130.183594 152.761719 C 128.601562 152.75 127.023438 152.824219 125.453125 152.980469 C 124.953125 153.035156 124.480469 153.167969 124.027344 153.386719 C 123.578125 153.601562 123.171875 153.886719 122.820312 154.242188 C 122.464844 154.59375 122.179688 155 121.964844 155.449219 C 121.746094 155.902344 121.613281 156.375 121.558594 156.875 C 121.402344 158.445312 121.328125 160.023438 121.339844 161.601562 C 121.355469 160.023438 121.28125 158.445312 121.125 156.875 C 121.070312 156.375 120.9375 155.902344 120.71875 155.449219 C 120.503906 155 120.21875 154.59375 119.863281 154.242188 C 119.511719 153.886719 119.105469 153.601562 118.65625 153.386719 C 118.203125 153.167969 117.730469 153.035156 117.230469 152.980469 C 115.660156 152.824219 114.082031 152.75 112.503906 152.761719 C 114.082031 152.777344 115.660156 152.703125 117.230469 152.546875 C 117.730469 152.492188 118.203125 152.359375 118.65625 152.140625 C 119.109375 151.925781 119.511719 151.640625 119.863281 151.285156 C 120.21875 150.933594 120.503906 150.53125 120.71875 150.078125 C 120.9375 149.625 121.070312 149.152344 121.125 148.652344 C 121.28125 147.082031 121.355469 145.503906 121.339844 143.925781 C 121.328125 145.503906 121.402344 147.082031 121.558594 148.652344 Z M 121.558594 148.652344 " fill-opacity="1" fill-rule="nonzero"/></g><g fill="#000000" fill-opacity="1"><g transform="translate(124.46484, 194.723147)"><g><path d="M 5.21875 -21.421875 L 5.21875 -1.671875 L 8.1875 -0.5625 L 8.1875 0 L 1.125 0 L 1.125 -0.5625 L 4.09375 -1.671875 L 4.09375 -24.953125 L 1.859375 -25.515625 L 1.859375 -26.078125 L 6.515625 -26.078125 C 7.804688 -26.078125 8.832031 -25.804688 9.59375 -25.265625 C 10.351562 -24.734375 11.003906 -23.945312 11.546875 -22.90625 L 19.671875 -7.375 L 25.890625 -22.90625 C 26.304688 -24 26.875 -24.800781 27.59375 -25.3125 C 28.320312 -25.820312 29.429688 -26.078125 30.921875 -26.078125 L 34.828125 -26.078125 L 34.828125 -25.515625 L 32.59375 -24.953125 L 32.59375 -1.125 L 34.828125 -0.5625 L 34.828125 0 L 24.21875 0 L 24.21875 -0.5625 L 26.453125 -1.125 L 26.453125 -21.421875 L 17.6875 0.375 L 16.578125 0.375 Z M 5.21875 -21.421875 "/></g></g></g><g fill="#000000" fill-opacity="1"><g transform="translate(161.148325, 194.723147)"><g><path d="M 11.546875 0.5625 C 8.367188 0.5625 5.894531 -0.3125 4.125 -2.0625 C 2.363281 -3.8125 1.484375 -6.226562 1.484375 -9.3125 C 1.484375 -11.320312 1.867188 -13.070312 2.640625 -14.5625 C 3.410156 -16.050781 4.484375 -17.191406 5.859375 -17.984375 C 7.242188 -18.785156 8.828125 -19.1875 10.609375 -19.1875 C 12.398438 -19.1875 13.972656 -18.847656 15.328125 -18.171875 C 16.679688 -17.503906 17.722656 -16.601562 18.453125 -15.46875 C 19.191406 -14.34375 19.5625 -13.097656 19.5625 -11.734375 C 19.5625 -11.109375 19.5 -10.570312 19.375 -10.125 L 19.1875 -9.5 C 18.113281 -9.269531 16.957031 -9.082031 15.71875 -8.9375 C 13.113281 -8.5625 10.484375 -8.375 7.828125 -8.375 C 7.828125 -5.5 8.222656 -3.445312 9.015625 -2.21875 C 9.804688 -0.988281 10.898438 -0.375 12.296875 -0.375 C 13.265625 -0.375 14.160156 -0.601562 14.984375 -1.0625 C 15.816406 -1.519531 16.472656 -2.125 16.953125 -2.875 C 17.441406 -3.632812 17.6875 -4.414062 17.6875 -5.21875 L 18.625 -5.21875 C 18.625 -4.21875 18.328125 -3.269531 17.734375 -2.375 C 17.140625 -1.488281 16.304688 -0.773438 15.234375 -0.234375 C 14.171875 0.296875 12.941406 0.5625 11.546875 0.5625 Z M 7.828125 -9.3125 C 9.410156 -9.3125 10.703125 -9.375 11.703125 -9.5 C 12.117188 -9.519531 12.5625 -9.582031 13.03125 -9.6875 C 13.0625 -9.8125 13.125 -10.082031 13.21875 -10.5 C 13.34375 -11.125 13.40625 -11.785156 13.40625 -12.484375 C 13.40625 -14.546875 13.128906 -16.050781 12.578125 -17 C 12.035156 -17.957031 11.378906 -18.4375 10.609375 -18.4375 C 8.753906 -18.4375 7.828125 -15.394531 7.828125 -9.3125 Z M 7.828125 -9.3125 "/></g></g></g><g fill="#000000" fill-opacity="1"><g transform="translate(182.00391, 194.723147)"><g><path d="M 1.484375 -0.5625 L 3.71875 -1.125 L 3.71875 -24.953125 L 1.484375 -25.515625 L 1.484375 -26.078125 L 6.328125 -26.078125 C 8.566406 -26.078125 9.6875 -24.957031 9.6875 -22.71875 L 9.6875 -1.125 L 11.921875 -0.5625 L 11.921875 0 L 1.484375 0 Z M 1.484375 -0.5625 "/></g></g></g><g fill="#000000" fill-opacity="1"><g transform="translate(194.666224, 194.723147)"><g><path d="M 1.484375 -0.5625 L 3.71875 -1.125 L 3.71875 -17.5 L 1.484375 -18.0625 L 1.484375 -18.625 L 6.328125 -18.625 C 8.566406 -18.625 9.6875 -17.503906 9.6875 -15.265625 L 9.6875 -1.125 L 11.921875 -0.5625 L 11.921875 0 L 1.484375 0 Z M 6.328125 -20.859375 C 5.585938 -20.859375 4.96875 -21.101562 4.46875 -21.59375 C 3.976562 -22.09375 3.734375 -22.71875 3.734375 -23.46875 C 3.734375 -24.207031 3.976562 -24.828125 4.46875 -25.328125 C 4.96875 -25.828125 5.585938 -26.078125 6.328125 -26.078125 C 7.078125 -26.078125 7.695312 -25.828125 8.1875 -25.328125 C 8.6875 -24.828125 8.9375 -24.207031 8.9375 -23.46875 C 8.9375 -22.71875 8.6875 -22.09375 8.1875 -21.59375 C 7.695312 -21.101562 7.078125 -20.859375 6.328125 -20.859375 Z M 6.328125 -20.859375 "/></g></g></g><g fill="#000000" fill-opacity="1"><g transform="translate(207.328539, 194.723147)"><g><path d="M 1.484375 -0.5625 L 3.71875 -1.125 L 3.71875 -24.953125 L 1.484375 -25.515625 L 1.484375 -26.078125 L 6.328125 -26.078125 C 8.566406 -26.078125 9.6875 -24.957031 9.6875 -22.71875 L 9.6875 -9.6875 L 16.578125 -16.953125 L 13.78125 -18.0625 L 13.78125 -18.625 L 20.859375 -18.625 L 20.859375 -18.0625 L 17.875 -16.953125 L 13.59375 -12.484375 L 20.859375 -1.125 L 22.71875 -0.5625 L 22.71875 0 L 17.875 0 C 16.6875 0 15.71875 -0.257812 14.96875 -0.78125 C 14.226562 -1.300781 13.519531 -2.097656 12.84375 -3.171875 L 9.6875 -8.1875 L 9.6875 -1.125 L 11.921875 -0.5625 L 11.921875 0 L 1.484375 0 Z M 1.484375 -0.5625 "/></g></g></g><g fill="#000000" fill-opacity="1"><g transform="translate(229.673802, 194.723147)"><g><path d="M 11.546875 0.5625 C 8.367188 0.5625 5.894531 -0.3125 4.125 -2.0625 C 2.363281 -3.8125 1.484375 -6.226562 1.484375 -9.3125 C 1.484375 -11.320312 1.867188 -13.070312 2.640625 -14.5625 C 3.410156 -16.050781 4.484375 -17.191406 5.859375 -17.984375 C 7.242188 -18.785156 8.828125 -19.1875 10.609375 -19.1875 C 12.398438 -19.1875 13.972656 -18.847656 15.328125 -18.171875 C 16.679688 -17.503906 17.722656 -16.601562 18.453125 -15.46875 C 19.191406 -14.34375 19.5625 -13.097656 19.5625 -11.734375 C 19.5625 -11.109375 19.5 -10.570312 19.375 -10.125 L 19.1875 -9.5 C 18.113281 -9.269531 16.957031 -9.082031 15.71875 -8.9375 C 13.113281 -8.5625 10.484375 -8.375 7.828125 -8.375 C 7.828125 -5.5 8.222656 -3.445312 9.015625 -2.21875 C 9.804688 -0.988281 10.898438 -0.375 12.296875 -0.375 C 13.265625 -0.375 14.160156 -0.601562 14.984375 -1.0625 C 15.816406 -1.519531 16.472656 -2.125 16.953125 -2.875 C 17.441406 -3.632812 17.6875 -4.414062 17.6875 -5.21875 L 18.625 -5.21875 C 18.625 -4.21875 18.328125 -3.269531 17.734375 -2.375 C 17.140625 -1.488281 16.304688 -0.773438 15.234375 -0.234375 C 14.171875 0.296875 12.941406 0.5625 11.546875 0.5625 Z M 7.828125 -9.3125 C 9.410156 -9.3125 10.703125 -9.375 11.703125 -9.5 C 12.117188 -9.519531 12.5625 -9.582031 13.03125 -9.6875 C 13.0625 -9.8125 13.125 -10.082031 13.21875 -10.5 C 13.34375 -11.125 13.40625 -11.785156 13.40625 -12.484375 C 13.40625 -14.546875 13.128906 -16.050781 12.578125 -17 C 12.035156 -17.957031 11.378906 -18.4375 10.609375 -18.4375 C 8.753906 -18.4375 7.828125 -15.394531 7.828125 -9.3125 Z M 7.828125 -9.3125 "/></g></g></g></svg>